<svg xmlns="http://www.w3.org/2000/svg" version="1.1" xmlns:xlink="http://www.w3.org/1999/xlink" xmlns:svgjs="http://svgjs.dev/svgjs" width="70" height="70"><svg width="70" height="70" viewBox="0 0 70 70" fill="none" xmlns="http://www.w3.org/2000/svg">
<circle cx="35" cy="35" r="35" fill="#D96262"></circle>
<path d="M52.7815 39.5532C52.9521 39.4965 53.2081 39.4681 53.5494 39.4681C54.5165 39.4681 55 40.0922 55 41.3404C55 42.0213 54.8436 42.6028 54.5307 43.0851C54.2463 43.539 53.7912 43.8227 53.1655 43.9362C50.5772 44.4184 48.0316 44.9574 45.5286 45.5532L45.4006 46.5745C44.6042 52.1631 43.0114 56.2908 40.6223 58.9574C38.2615 61.6525 35.3035 63 31.7482 63C29.3874 63 27.5529 62.4184 26.2445 61.2553C24.9646 60.1206 24.3247 58.6596 24.3247 56.8723C24.3247 53.8936 25.6615 51.2411 28.3351 48.9149C31.0087 46.5887 35.0617 44.5319 40.4943 42.7447L41.3476 36.7447C41.4613 36.0638 41.6035 35.156 41.7742 34.0213C40.4374 37.539 38.7308 40.1631 36.6545 41.8936C34.5782 43.6241 32.2601 44.4894 29.7003 44.4894C27.2542 44.4894 25.3913 43.7518 24.1113 42.2766C22.8314 40.7731 22.1915 38.844 22.1915 36.4894C22.1915 35.4397 22.3052 34.2908 22.5328 33.0426C22.7603 31.766 23.1159 30.0496 23.5994 27.8936C24.026 25.9362 24.3389 24.3759 24.538 23.2128C24.7655 22.0496 24.8793 21.0142 24.8793 20.1064C24.8793 18.7447 24.3531 18.0638 23.3007 18.0638C22.4759 18.0638 21.4946 18.4752 20.3569 19.2979C19.2477 20.0922 18.0673 21.3262 16.8158 23C16.4176 23.539 15.9768 23.8085 15.4932 23.8085C15.095 23.8085 14.7395 23.6241 14.4266 23.2553C14.1422 22.8582 14 22.4184 14 21.9362C14 21.0567 14.3982 20.0638 15.1946 18.9574C18.0957 14.9858 21.4946 13 25.3913 13C27.1263 13 28.4773 13.5248 29.4443 14.5745C30.4398 15.6241 30.9376 17.1702 30.9376 19.2128C30.9376 20.6879 30.7954 22.2057 30.5109 23.766C30.2549 25.2979 29.8567 27.2553 29.3163 29.6383C28.975 31.0567 28.719 32.2057 28.5484 33.0851C28.3777 33.9362 28.2924 34.6454 28.2924 35.2128C28.2924 36.6596 28.5484 37.695 29.0604 38.3191C29.5723 38.9433 30.4683 39.2553 31.7482 39.2553C33.2841 39.2553 34.8484 38.4184 36.4412 36.7447C38.0624 35.0426 39.513 32.4752 40.7929 29.0426C42.1013 25.6099 43.0399 21.4113 43.6087 16.4468C43.751 15.1986 44.078 14.3191 44.59 13.8085C45.102 13.2695 45.8415 13 46.8085 13C48.7995 13 49.795 13.9929 49.795 15.9787C49.795 16.3191 49.7808 16.5887 49.7523 16.7872C49.155 21.0142 48.6004 24.8298 48.0884 28.234C47.804 30.2766 47.4912 32.3759 47.1498 34.5319C46.837 36.6879 46.5241 38.8723 46.2112 41.0851C48.2875 40.5177 50.4776 40.0071 52.7815 39.5532ZM39.8543 47.2128C32.9712 49.5957 29.5297 52.4894 29.5297 55.8936C29.5297 56.6879 29.7714 57.3404 30.2549 57.8511C30.7669 58.3901 31.478 58.6596 32.3881 58.6596C36.3417 58.6596 38.8162 54.9433 39.8117 47.5106L39.8543 47.2128Z" fill="white"></path>
</svg><style>@media (prefers-color-scheme: light) { :root { filter: none; } }
@media (prefers-color-scheme: dark) { :root { filter: none; } }
</style></svg>